<svg xmlns="http://www.w3.org/2000/svg" data-name="Layer 1" viewBox="0 0 512 627.5350000000001" x="0px" y="0px"><path d="M364.544,163.84H139.264a32.768,32.768,0,0,1,0-65.536h183.4a49.152,49.152,0,0,0,0-98.3H307.2a8.192,8.192,0,0,0,0,16.384h15.468a32.768,32.768,0,0,1,0,65.536h-53.58A49.068,49.068,0,0,0,232.556,0H217.088a8.192,8.192,0,0,0,0,16.384h15.468a32.768,32.768,0,0,1,0,65.536H49.152a49.152,49.152,0,0,0,0,98.3H63.008l66.084,45.056H98.3A8.192,8.192,0,0,0,94.088,240.5l62.468,37.48a90.15,90.15,0,0,0,46.36,12.84h5.4L174.688,321.64a8.2,8.2,0,0,0-.86,11.156l16.384,20.48A8.19,8.19,0,0,0,203,343.044l-11.6-14.5,41.16-37.728h24.9L223.84,321.64a8.2,8.2,0,0,0-.86,11.156l16.384,20.48a8.19,8.19,0,0,0,12.792-10.232l-11.6-14.5,41.16-37.728h24.9L272.992,321.64a8.2,8.2,0,0,0-.86,11.156l16.384,20.48a8.19,8.19,0,1,0,12.792-10.232l-11.6-14.5,41.16-37.728h5a57.344,57.344,0,0,1,0,114.688H323.584a8.192,8.192,0,0,0,0,16.384h12.288a73.24,73.24,0,0,0,40.277-12.053c6.615,11.3,22.164,18.465,40.052,21.905a130.313,130.313,0,0,1-51.657,10.628h-40.96a8.192,8.192,0,0,0,0,16.384h40.96C445.852,458.752,512,392.6,512,311.3S445.852,163.84,364.544,163.84ZM495.616,311.3c0,11.159-33.478,27.1-86.521,28.531a73.207,73.207,0,0,0-13.784-35.1c27.706-9.69,47.892-47.145,50.788-95.923A130.869,130.869,0,0,1,495.616,311.3ZM16.384,131.072A32.806,32.806,0,0,1,49.152,98.3h53.579a48.854,48.854,0,0,0,0,65.536H49.152A32.806,32.806,0,0,1,16.384,131.072Zm186.532,143.36a73.764,73.764,0,0,1-37.932-10.5l-37.1-22.264h27.768a8.192,8.192,0,0,0,4.616-14.96l-68.172-46.48h182.23c-1.119,57.941-13.792,92.534-20.37,94.208Zm132.956,0H274.25C285.838,252,290.1,211.006,290.728,180.224h73.816a130.223,130.223,0,0,1,65.52,17.625c-.345,50.665-21.651,91.784-48.027,92.913A73.336,73.336,0,0,0,335.872,274.432ZM440.854,417.761c-26.9-.308-49.515-8.723-51.532-18.968A73.435,73.435,0,0,0,409.14,356.2c38.805-.9,66.948-8.463,83.868-18.858A131.3,131.3,0,0,1,440.854,417.761Z"/><path d="M315.912,428.032c-.709-1.226-45.98-56.192-55.416-61.636-15.176-8.76-34.876-3.164-43.912,12.484s-4.032,35.508,11.144,44.272c4.98,2.874,17.46,6.011,32.256,8.973-14.181,2.85-27.183,6.052-32.256,8.979-15.176,8.764-20.176,28.624-11.144,44.272a33.1,33.1,0,0,0,19.488,15.368,31.986,31.986,0,0,0,8.936,1.284,30.9,30.9,0,0,0,15.488-4.164c12.036-6.952,47.72-51.752,54.752-60.66A8.2,8.2,0,0,0,315.912,428.032Zm-85.14-40.96a16.583,16.583,0,0,1,14.2-8.436,14.611,14.611,0,0,1,7.332,1.952c3.784,2.184,16.416,15.38,36.776,40.148-31.656-5.26-49.408-9.6-53.164-11.776C228.568,404.716,226.26,394.9,230.772,387.072Zm21.532,96.6a14.786,14.786,0,0,1-11.668,1.336,16.788,16.788,0,0,1-9.86-7.824c-4.516-7.824-2.208-17.644,5.144-21.888,4.86-2.808,28.184-7.636,53.216-11.8C273.012,463.084,257.168,480.864,252.3,483.672Z"/><path d="M184.32,188.416h-8.192a8.192,8.192,0,1,0,0,16.384h8.192a8.192,8.192,0,0,0,0-16.384Z"/><text x="0" y="517.028" fill="#000000" font-size="5px" font-weight="bold" font-family="'Helvetica Neue', Helvetica, Arial-Unicode, Arial, Sans-serif">Created by tulpahn</text><text x="0" y="522.028" fill="#000000" font-size="5px" font-weight="bold" font-family="'Helvetica Neue', Helvetica, Arial-Unicode, Arial, Sans-serif">from the Noun Project</text></svg>